<svg xmlns="http://www.w3.org/2000/svg" xmlns:xlink="http://www.w3.org/1999/xlink" fill="none" version="1.1" width="850" height="1000.0001220703125" viewBox="0 0 850 1000.0001220703125"><g><g><path d="M3.344482421875,251.159L239.729482421875,394L425.000482421875,287.291L425.000482421875,0L3.344482421875,251.159Z" fill-rule="evenodd" fill="#1BBC9B" fill-opacity="1"/></g><g><path d="M3.04989,251L0,745.165L176.005,854L425,713.2080000000001L240.444,605.403L240.149,394.075L3.04989,251Z" fill-rule="evenodd" fill="#36D7B7" fill-opacity="1"/></g><g transform="matrix(-1,1.2246468525851679e-16,-1.2246468525851679e-16,-1,1700,1502.000244140625)"><path d="M853.04989,751.0001220703125L850.0000000000002,1245.1651220703125L1026.005,1354.0001220703125L1275,1213.2081220703126L1090.444,1105.4031220703125L1090.149,894.0751220703125L853.04989,751.0001220703125Z" fill-rule="evenodd" fill="#19B5FE" fill-opacity="1"/></g><g transform="matrix(-1,1.2246468525851679e-16,-1.2246468525851679e-16,-1,1694,2000.000244140625)"><path d="M846.9999999999998,1249.7861220703126L1083.729,1394.0001220703125L1269,1287.2911220703124L1269,1000.0001220703125L846.9999999999998,1249.7861220703126Z" fill-rule="evenodd" fill="#3498DB" fill-opacity="1"/></g></g></svg>